<svg xmlns="http://www.w3.org/2000/svg" width="34.56" height="34.56" viewBox="0 0 34.56 34.56">
  <path id="Icon_map-compass" data-name="Icon map-compass" d="M18,35.28A17.28,17.28,0,1,1,35.28,18,17.3,17.3,0,0,1,18,35.28ZM18,3.6A14.4,14.4,0,1,0,32.4,18,14.416,14.416,0,0,0,18,3.6Zm.032,2.34S12.96,14.631,12.96,17.28v1.44c0,2.648,5.088,11.52,5.088,11.52S23.04,21.552,23.04,18.9V17.276c0-2.649-5.008-11.336-5.008-11.336ZM18,20.88A2.88,2.88,0,1,1,20.88,18,2.88,2.88,0,0,1,18,20.88Z" transform="translate(-0.72 -0.72)" fill="#9d9d9d"/>
</svg>
